<svg id="visual" viewBox="0 0 960 540" width="960" height="540" xmlns="http://www.w3.org/2000/svg" xmlns:xlink="http://www.w3.org/1999/xlink" version="1.1"><rect x="0" y="0" width="960" height="540" fill="#fff9e1"></rect><path d="M0 152L20 152.8C40 153.7 80 155.3 120 145.2C160 135 200 113 240 111.8C280 110.7 320 130.3 360 140.7C400 151 440 152 480 149.8C520 147.7 560 142.3 600 136.8C640 131.3 680 125.7 720 126.5C760 127.3 800 134.7 840 135.2C880 135.7 920 129.3 940 126.2L960 123L960 541L940 541C920 541 880 541 840 541C800 541 760 541 720 541C680 541 640 541 600 541C560 541 520 541 480 541C440 541 400 541 360 541C320 541 280 541 240 541C200 541 160 541 120 541C80 541 40 541 20 541L0 541Z" fill="#362ba2"></path><path d="M0 251L20 242.7C40 234.3 80 217.7 120 209.3C160 201 200 201 240 202.5C280 204 320 207 360 214.7C400 222.3 440 234.7 480 238.7C520 242.7 560 238.3 600 230.3C640 222.3 680 210.7 720 211.5C760 212.3 800 225.7 840 226.7C880 227.7 920 216.3 940 210.7L960 205L960 541L940 541C920 541 880 541 840 541C800 541 760 541 720 541C680 541 640 541 600 541C560 541 520 541 480 541C440 541 400 541 360 541C320 541 280 541 240 541C200 541 160 541 120 541C80 541 40 541 20 541L0 541Z" fill="#2745af"></path><path d="M0 333L20 332.5C40 332 80 331 120 332.8C160 334.7 200 339.3 240 335.7C280 332 320 320 360 318.3C400 316.7 440 325.3 480 326.2C520 327 560 320 600 317.2C640 314.3 680 315.7 720 323.8C760 332 800 347 840 352.2C880 357.3 920 352.7 940 350.3L960 348L960 541L940 541C920 541 880 541 840 541C800 541 760 541 720 541C680 541 640 541 600 541C560 541 520 541 480 541C440 541 400 541 360 541C320 541 280 541 240 541C200 541 160 541 120 541C80 541 40 541 20 541L0 541Z" fill="#215bb8"></path><path d="M0 424L20 427.3C40 430.7 80 437.3 120 443.7C160 450 200 456 240 454.2C280 452.3 320 442.7 360 439.5C400 436.3 440 439.7 480 443.5C520 447.3 560 451.7 600 447.7C640 443.7 680 431.3 720 427.5C760 423.7 800 428.3 840 430.8C880 433.3 920 433.7 940 433.8L960 434L960 541L940 541C920 541 880 541 840 541C800 541 760 541 720 541C680 541 640 541 600 541C560 541 520 541 480 541C440 541 400 541 360 541C320 541 280 541 240 541C200 541 160 541 120 541C80 541 40 541 20 541L0 541Z" fill="#2c6fbe"></path></svg>