<svg id="visual" viewBox="0 0 1366 540" width="1366" height="540" xmlns="http://www.w3.org/2000/svg" xmlns:xlink="http://www.w3.org/1999/xlink" version="1.1"><rect x="0" y="0" width="1366" height="540" fill="#fff9e1"></rect><path d="M0 185L32.5 190.2C65 195.3 130 205.7 195 220C260 234.3 325 252.7 390 258C455 263.3 520 255.7 585.2 251.3C650.3 247 715.7 246 780.8 251.2C846 256.3 911 267.7 976 272.7C1041 277.7 1106 276.3 1171 260.3C1236 244.3 1301 213.7 1333.5 198.3L1366 183L1366 541L1333.5 541C1301 541 1236 541 1171 541C1106 541 1041 541 976 541C911 541 846 541 780.8 541C715.7 541 650.3 541 585.2 541C520 541 455 541 390 541C325 541 260 541 195 541C130 541 65 541 32.5 541L0 541Z" fill="#362ba2"></path><path d="M0 305L32.5 312C65 319 130 333 195 343C260 353 325 359 390 346.3C455 333.7 520 302.3 585.2 294.2C650.3 286 715.7 301 780.8 313.7C846 326.3 911 336.7 976 334.7C1041 332.7 1106 318.3 1171 308.5C1236 298.7 1301 293.3 1333.5 290.7L1366 288L1366 541L1333.5 541C1301 541 1236 541 1171 541C1106 541 1041 541 976 541C911 541 846 541 780.8 541C715.7 541 650.3 541 585.2 541C520 541 455 541 390 541C325 541 260 541 195 541C130 541 65 541 32.5 541L0 541Z" fill="#2250b4"></path><path d="M0 406L32.5 402C65 398 130 390 195 386.8C260 383.7 325 385.3 390 383.7C455 382 520 377 585.2 373.8C650.3 370.7 715.7 369.3 780.8 379.5C846 389.7 911 411.3 976 423.5C1041 435.7 1106 438.3 1171 432.8C1236 427.3 1301 413.7 1333.5 406.8L1366 400L1366 541L1333.5 541C1301 541 1236 541 1171 541C1106 541 1041 541 976 541C911 541 846 541 780.8 541C715.7 541 650.3 541 585.2 541C520 541 455 541 390 541C325 541 260 541 195 541C130 541 65 541 32.5 541L0 541Z" fill="#2c6fbe"></path></svg>